<svg xmlns="http://www.w3.org/2000/svg" width="760" height="144" viewBox="0 0 190 36" shape-rendering="crispEdges">
<style>
.sA { animation: tw 3s ease-in-out infinite alternate; }
.sB { animation: tw 3s ease-in-out infinite alternate; animation-delay: -1.5s; }
@keyframes tw { from { opacity: 0.25; } to { opacity: 1; } }
.au { animation: tw 5s ease-in-out infinite alternate; }
.sp { animation: tw 2.5s ease-in-out infinite alternate; animation-delay: -1s; }
.gg { animation: tw 2s ease-in-out infinite alternate; }
.lids { opacity: 0; animation: blink 6s linear infinite; }
@keyframes blink { 0%, 92% { opacity: 0; } 93%, 97% { opacity: 1; } 100% { opacity: 0; } }
.pulse { animation: ride 14s linear infinite; }
@keyframes ride { from { transform: translateX(-8px); } to { transform: translateX(198px); } }
.ship { animation: fly 26s linear infinite; }
@keyframes fly { from { transform: translateX(200px); } to { transform: translateX(-30px); } }
.beam { animation: sweep 12s linear infinite; transform-origin: 153px 16.5px; }
@keyframes sweep { from { transform: rotate(0deg); } to { transform: rotate(360deg); } }
.bub { animation: bob 3s ease-in-out infinite alternate; }
@keyframes bob { from { transform: translateY(0); } to { transform: translateY(-1px); } }
</style>
<rect x="128" y="4" width="3" height="1" fill="#ced8e8"/><rect x="128" y="5" width="2" height="1" fill="#ced8e8"/><rect x="130" y="5" width="1" height="1" fill="#96a0b4"/><rect x="128" y="6" width="1" height="1" fill="#ced8e8"/><rect x="129" y="6" width="1" height="1" fill="#96a0b4"/><rect x="152" y="15" width="2" height="1" fill="#2c3240"/><rect x="152" y="16" width="2" height="1" fill="#a9edbf"/><rect x="151" y="17" width="4" height="1" fill="#2c3240"/><rect x="28" y="18" width="1" height="1" fill="#565e70"/><rect x="29" y="18" width="3" height="1" fill="#327a42"/><rect x="32" y="18" width="1" height="1" fill="#565e70"/><rect x="95" y="18" width="1" height="1" fill="#6ee7b7"/><rect x="152" y="18" width="2" height="1" fill="#ced8e8"/><rect x="28" y="19" width="5" height="1" fill="#565e70"/><rect x="95" y="19" width="1" height="1" fill="#8b5cf6"/><rect x="152" y="19" width="2" height="1" fill="#ced8e8"/><rect x="30" y="20" width="1" height="1" fill="#565e70"/><rect x="92" y="20" width="7" height="1" fill="#130f2b"/><rect x="152" y="20" width="2" height="1" fill="#ced8e8"/><rect x="30" y="21" width="1" height="1" fill="#565e70"/><rect x="91" y="21" width="1" height="1" fill="#130f2b"/><rect x="92" y="21" width="7" height="1" fill="#6fc98a"/><rect x="99" y="21" width="1" height="1" fill="#130f2b"/><rect x="152" y="21" width="2" height="1" fill="#2c3240"/><rect x="29" y="22" width="1" height="1" fill="#565e70"/><rect x="31" y="22" width="1" height="1" fill="#565e70"/><rect x="90" y="22" width="1" height="1" fill="#130f2b"/><rect x="91" y="22" width="9" height="1" fill="#6fc98a"/><rect x="100" y="22" width="1" height="1" fill="#130f2b"/><rect x="152" y="22" width="2" height="1" fill="#2c3240"/><rect x="28" y="23" width="1" height="1" fill="#565e70"/><rect x="32" y="23" width="1" height="1" fill="#565e70"/><rect x="90" y="23" width="1" height="1" fill="#130f2b"/><rect x="91" y="23" width="1" height="1" fill="#6fc98a"/><rect x="92" y="23" width="2" height="1" fill="#12232a"/><rect x="94" y="23" width="3" height="1" fill="#6fc98a"/><rect x="97" y="23" width="2" height="1" fill="#12232a"/><rect x="99" y="23" width="1" height="1" fill="#6fc98a"/><rect x="100" y="23" width="1" height="1" fill="#130f2b"/><rect x="152" y="23" width="2" height="1" fill="#2c3240"/><rect x="0" y="24" width="27" height="1" fill="#96a0b4"/><rect x="27" y="24" width="1" height="1" fill="#565e70"/><rect x="28" y="24" width="2" height="1" fill="#2c3240"/><rect x="30" y="24" width="1" height="1" fill="#327a42"/><rect x="31" y="24" width="2" height="1" fill="#2c3240"/><rect x="33" y="24" width="1" height="1" fill="#565e70"/><rect x="34" y="24" width="35" height="1" fill="#96a0b4"/><rect x="69" y="24" width="1" height="1" fill="#327a42"/><rect x="70" y="24" width="1" height="1" fill="#34d399"/><rect x="71" y="24" width="1" height="1" fill="#327a42"/><rect x="72" y="24" width="18" height="1" fill="#96a0b4"/><rect x="90" y="24" width="1" height="1" fill="#130f2b"/><rect x="91" y="24" width="1" height="1" fill="#ff9ec6"/><rect x="92" y="24" width="2" height="1" fill="#12232a"/><rect x="94" y="24" width="3" height="1" fill="#6fc98a"/><rect x="97" y="24" width="2" height="1" fill="#12232a"/><rect x="99" y="24" width="1" height="1" fill="#ff9ec6"/><rect x="100" y="24" width="1" height="1" fill="#130f2b"/><rect x="101" y="24" width="51" height="1" fill="#96a0b4"/><rect x="152" y="24" width="2" height="1" fill="#ced8e8"/><rect x="154" y="24" width="36" height="1" fill="#96a0b4"/><rect x="0" y="25" width="28" height="1" fill="#565e70"/><rect x="28" y="25" width="2" height="1" fill="#2c3240"/><rect x="30" y="25" width="1" height="1" fill="#327a42"/><rect x="31" y="25" width="2" height="1" fill="#2c3240"/><rect x="33" y="25" width="24" height="1" fill="#565e70"/><rect x="57" y="25" width="2" height="1" fill="#327a42"/><rect x="59" y="25" width="1" height="1" fill="#34d399"/><rect x="60" y="25" width="8" height="1" fill="#565e70"/><rect x="68" y="25" width="1" height="1" fill="#34d399"/><rect x="69" y="25" width="2" height="1" fill="#327a42"/><rect x="71" y="25" width="1" height="1" fill="#34d399"/><rect x="72" y="25" width="1" height="1" fill="#327a42"/><rect x="73" y="25" width="10" height="1" fill="#565e70"/><rect x="83" y="25" width="2" height="1" fill="#327a42"/><rect x="85" y="25" width="1" height="1" fill="#34d399"/><rect x="86" y="25" width="4" height="1" fill="#565e70"/><rect x="90" y="25" width="1" height="1" fill="#130f2b"/><rect x="91" y="25" width="3" height="1" fill="#6fc98a"/><rect x="94" y="25" width="3" height="1" fill="#0f9d63"/><rect x="97" y="25" width="3" height="1" fill="#6fc98a"/><rect x="100" y="25" width="1" height="1" fill="#130f2b"/><rect x="101" y="25" width="51" height="1" fill="#565e70"/><rect x="152" y="25" width="2" height="1" fill="#ced8e8"/><rect x="154" y="25" width="16" height="1" fill="#565e70"/><rect x="170" y="25" width="2" height="1" fill="#2c3240"/><rect x="172" y="25" width="18" height="1" fill="#565e70"/><rect x="28" y="26" width="1" height="1" fill="#565e70"/><rect x="32" y="26" width="1" height="1" fill="#565e70"/><rect x="56" y="26" width="1" height="1" fill="#327a42"/><rect x="57" y="26" width="1" height="1" fill="#34d399"/><rect x="58" y="26" width="2" height="1" fill="#327a42"/><rect x="60" y="26" width="1" height="1" fill="#34d399"/><rect x="67" y="26" width="2" height="1" fill="#327a42"/><rect x="69" y="26" width="1" height="1" fill="#34d399"/><rect x="70" y="26" width="2" height="1" fill="#327a42"/><rect x="72" y="26" width="1" height="1" fill="#34d399"/><rect x="73" y="26" width="1" height="1" fill="#327a42"/><rect x="82" y="26" width="1" height="1" fill="#327a42"/><rect x="83" y="26" width="1" height="1" fill="#34d399"/><rect x="84" y="26" width="2" height="1" fill="#327a42"/><rect x="86" y="26" width="1" height="1" fill="#34d399"/><rect x="90" y="26" width="1" height="1" fill="#130f2b"/><rect x="91" y="26" width="9" height="1" fill="#6fc98a"/><rect x="100" y="26" width="1" height="1" fill="#130f2b"/><rect x="152" y="26" width="2" height="1" fill="#ced8e8"/><rect x="168" y="26" width="4" height="1" fill="#130f2b"/><rect x="29" y="27" width="1" height="1" fill="#565e70"/><rect x="31" y="27" width="1" height="1" fill="#565e70"/><rect x="55" y="27" width="1" height="1" fill="#34d399"/><rect x="56" y="27" width="2" height="1" fill="#327a42"/><rect x="58" y="27" width="1" height="1" fill="#34d399"/><rect x="59" y="27" width="2" height="1" fill="#327a42"/><rect x="61" y="27" width="1" height="1" fill="#34d399"/><rect x="66" y="27" width="1" height="1" fill="#327a42"/><rect x="67" y="27" width="1" height="1" fill="#34d399"/><rect x="68" y="27" width="2" height="1" fill="#327a42"/><rect x="70" y="27" width="1" height="1" fill="#34d399"/><rect x="71" y="27" width="2" height="1" fill="#327a42"/><rect x="73" y="27" width="1" height="1" fill="#34d399"/><rect x="74" y="27" width="1" height="1" fill="#327a42"/><rect x="81" y="27" width="1" height="1" fill="#34d399"/><rect x="82" y="27" width="2" height="1" fill="#327a42"/><rect x="84" y="27" width="1" height="1" fill="#34d399"/><rect x="85" y="27" width="2" height="1" fill="#327a42"/><rect x="87" y="27" width="1" height="1" fill="#34d399"/><rect x="91" y="27" width="1" height="1" fill="#130f2b"/><rect x="92" y="27" width="7" height="1" fill="#6fc98a"/><rect x="99" y="27" width="1" height="1" fill="#130f2b"/><rect x="152" y="27" width="2" height="1" fill="#2c3240"/><rect x="165" y="27" width="9" height="1" fill="#130f2b"/><rect x="16" y="28" width="1" height="1" fill="#6ee7b7"/><rect x="30" y="28" width="1" height="1" fill="#565e70"/><rect x="38" y="28" width="1" height="1" fill="#6ee7b7"/><rect x="58" y="28" width="1" height="1" fill="#1f9d6b"/><rect x="63" y="28" width="3" height="1" fill="#68ba6e"/><rect x="70" y="28" width="1" height="1" fill="#1f9d6b"/><rect x="75" y="28" width="3" height="1" fill="#68ba6e"/><rect x="84" y="28" width="1" height="1" fill="#1f9d6b"/><rect x="92" y="28" width="7" height="1" fill="#130f2b"/><rect x="152" y="28" width="2" height="1" fill="#2c3240"/><rect x="162" y="28" width="6" height="1" fill="#130f2b"/><rect x="168" y="28" width="4" height="1" fill="#080c18"/><rect x="172" y="28" width="4" height="1" fill="#130f2b"/><rect x="181" y="28" width="1" height="1" fill="#6ee7b7"/><rect x="16" y="29" width="1" height="1" fill="#1f9d6b"/><rect x="38" y="29" width="1" height="1" fill="#1f9d6b"/><rect x="53" y="29" width="1" height="1" fill="#68ba6e"/><rect x="57" y="29" width="1" height="1" fill="#68ba6e"/><rect x="58" y="29" width="1" height="1" fill="#1f9d6b"/><rect x="62" y="29" width="1" height="1" fill="#327a42"/><rect x="63" y="29" width="1" height="1" fill="#68ba6e"/><rect x="64" y="29" width="3" height="1" fill="#327a42"/><rect x="67" y="29" width="1" height="1" fill="#68ba6e"/><rect x="70" y="29" width="1" height="1" fill="#1f9d6b"/><rect x="74" y="29" width="1" height="1" fill="#68ba6e"/><rect x="75" y="29" width="4" height="1" fill="#327a42"/><rect x="80" y="29" width="1" height="1" fill="#68ba6e"/><rect x="84" y="29" width="1" height="1" fill="#68ba6e"/><rect x="91" y="29" width="1" height="1" fill="#68ba6e"/><rect x="92" y="29" width="2" height="1" fill="#46a86a"/><rect x="94" y="29" width="1" height="1" fill="#1f9d6b"/><rect x="97" y="29" width="2" height="1" fill="#46a86a"/><rect x="152" y="29" width="2" height="1" fill="#2c3240"/><rect x="162" y="29" width="3" height="1" fill="#130f2b"/><rect x="165" y="29" width="9" height="1" fill="#080c18"/><rect x="174" y="29" width="4" height="1" fill="#130f2b"/><rect x="181" y="29" width="1" height="1" fill="#1f9d6b"/><rect x="0" y="30" width="52" height="1" fill="#565e70"/><rect x="52" y="30" width="48" height="1" fill="#1a4228"/><rect x="100" y="30" width="12" height="1" fill="#a39a80"/><rect x="112" y="30" width="38" height="1" fill="#111d3a"/><rect x="150" y="30" width="6" height="1" fill="#2c3240"/><rect x="156" y="30" width="6" height="1" fill="#111d3a"/><rect x="162" y="30" width="14" height="1" fill="#080c18"/><rect x="176" y="30" width="2" height="1" fill="#130f2b"/><rect x="178" y="30" width="12" height="1" fill="#565e70"/><rect x="0" y="31" width="8" height="1" fill="#2c3240"/><rect x="8" y="31" width="1" height="1" fill="#565e70"/><rect x="9" y="31" width="35" height="1" fill="#2c3240"/><rect x="44" y="31" width="1" height="1" fill="#565e70"/><rect x="45" y="31" width="7" height="1" fill="#2c3240"/><rect x="52" y="31" width="48" height="1" fill="#130f2b"/><rect x="100" y="31" width="12" height="1" fill="#a39a80"/><rect x="112" y="31" width="6" height="1" fill="#111d3a"/><rect x="118" y="31" width="1" height="1" fill="#0d1426"/><rect x="119" y="31" width="6" height="1" fill="#111d3a"/><rect x="125" y="31" width="1" height="1" fill="#0d1426"/><rect x="126" y="31" width="6" height="1" fill="#111d3a"/><rect x="132" y="31" width="1" height="1" fill="#0d1426"/><rect x="133" y="31" width="6" height="1" fill="#111d3a"/><rect x="139" y="31" width="1" height="1" fill="#0d1426"/><rect x="140" y="31" width="6" height="1" fill="#111d3a"/><rect x="146" y="31" width="1" height="1" fill="#0d1426"/><rect x="147" y="31" width="3" height="1" fill="#111d3a"/><rect x="150" y="31" width="6" height="1" fill="#130f2b"/><rect x="156" y="31" width="4" height="1" fill="#111d3a"/><rect x="160" y="31" width="1" height="1" fill="#0d1426"/><rect x="161" y="31" width="1" height="1" fill="#111d3a"/><rect x="162" y="31" width="16" height="1" fill="#080c18"/><rect x="178" y="31" width="5" height="1" fill="#2c3240"/><rect x="183" y="31" width="1" height="1" fill="#565e70"/><rect x="184" y="31" width="6" height="1" fill="#2c3240"/><rect x="0" y="32" width="8" height="1" fill="#101a30"/><rect x="8" y="32" width="3" height="1" fill="#080c18"/><rect x="11" y="32" width="33" height="1" fill="#101a30"/><rect x="44" y="32" width="4" height="1" fill="#080c18"/><rect x="48" y="32" width="4" height="1" fill="#101a30"/><rect x="52" y="32" width="48" height="1" fill="#080c18"/><rect x="100" y="32" width="1" height="1" fill="#2c3240"/><rect x="101" y="32" width="3" height="1" fill="#101a30"/><rect x="104" y="32" width="1" height="1" fill="#2c3240"/><rect x="105" y="32" width="3" height="1" fill="#101a30"/><rect x="108" y="32" width="1" height="1" fill="#2c3240"/><rect x="109" y="32" width="3" height="1" fill="#101a30"/><rect x="112" y="32" width="50" height="1" fill="#0d1426"/><rect x="162" y="32" width="16" height="1" fill="#080c18"/><rect x="178" y="32" width="5" height="1" fill="#101a30"/><rect x="183" y="32" width="3" height="1" fill="#080c18"/><rect x="186" y="32" width="4" height="1" fill="#101a30"/><rect x="0" y="33" width="52" height="1" fill="#101a30"/><rect x="52" y="33" width="48" height="1" fill="#080c18"/><rect x="100" y="33" width="3" height="1" fill="#101a30"/><rect x="103" y="33" width="1" height="1" fill="#2c3240"/><rect x="104" y="33" width="3" height="1" fill="#101a30"/><rect x="107" y="33" width="1" height="1" fill="#2c3240"/><rect x="108" y="33" width="3" height="1" fill="#101a30"/><rect x="111" y="33" width="1" height="1" fill="#2c3240"/><rect x="112" y="33" width="50" height="1" fill="#0d1426"/><rect x="162" y="33" width="16" height="1" fill="#080c18"/><rect x="178" y="33" width="12" height="1" fill="#101a30"/><rect x="0" y="34" width="52" height="1" fill="#101a30"/><rect x="52" y="34" width="48" height="1" fill="#080c18"/><rect x="100" y="34" width="2" height="1" fill="#101a30"/><rect x="102" y="34" width="1" height="1" fill="#2c3240"/><rect x="103" y="34" width="3" height="1" fill="#101a30"/><rect x="106" y="34" width="1" height="1" fill="#2c3240"/><rect x="107" y="34" width="3" height="1" fill="#101a30"/><rect x="110" y="34" width="1" height="1" fill="#2c3240"/><rect x="111" y="34" width="1" height="1" fill="#101a30"/><rect x="112" y="34" width="66" height="1" fill="#080c18"/><rect x="178" y="34" width="12" height="1" fill="#101a30"/><rect x="0" y="35" width="52" height="1" fill="#101a30"/><rect x="52" y="35" width="48" height="1" fill="#080c18"/><rect x="100" y="35" width="1" height="1" fill="#101a30"/><rect x="101" y="35" width="1" height="1" fill="#2c3240"/><rect x="102" y="35" width="3" height="1" fill="#101a30"/><rect x="105" y="35" width="1" height="1" fill="#2c3240"/><rect x="106" y="35" width="3" height="1" fill="#101a30"/><rect x="109" y="35" width="1" height="1" fill="#2c3240"/><rect x="110" y="35" width="2" height="1" fill="#101a30"/><rect x="112" y="35" width="66" height="1" fill="#080c18"/><rect x="178" y="35" width="12" height="1" fill="#101a30"/>
<g class="sA"><rect x="8" y="4" width="1" height="1" fill="#565e70"/><rect x="62" y="5" width="1" height="1" fill="#565e70"/><rect x="116" y="6" width="1" height="1" fill="#565e70"/><rect x="150" y="10" width="1" height="1" fill="#565e70"/><rect x="18" y="11" width="1" height="1" fill="#565e70"/><rect x="52" y="15" width="1" height="1" fill="#565e70"/><rect x="106" y="15" width="1" height="1" fill="#565e70"/><rect x="160" y="16" width="1" height="1" fill="#565e70"/></g>
<g class="sB"><rect x="2" y="1" width="1" height="1" fill="#565e70"/><rect x="35" y="5" width="1" height="1" fill="#565e70"/><rect x="89" y="5" width="1" height="1" fill="#565e70"/><rect x="123" y="10" width="1" height="1" fill="#565e70"/><rect x="177" y="10" width="1" height="1" fill="#565e70"/><rect x="45" y="11" width="1" height="1" fill="#565e70"/><rect x="79" y="15" width="1" height="1" fill="#565e70"/><rect x="133" y="16" width="1" height="1" fill="#565e70"/></g>
<g class="au"><rect x="161" y="4" width="1" height="1" fill="#68ba6e"/><rect x="162" y="4" width="6" height="1" fill="#8b5cf6"/><rect x="140" y="5" width="2" height="1" fill="#8b5cf6"/><rect x="159" y="5" width="2" height="1" fill="#68ba6e"/><rect x="161" y="5" width="7" height="1" fill="#327a42"/><rect x="140" y="6" width="2" height="1" fill="#327a42"/><rect x="142" y="6" width="2" height="1" fill="#8b5cf6"/><rect x="157" y="6" width="2" height="1" fill="#68ba6e"/><rect x="159" y="6" width="2" height="1" fill="#327a42"/><rect x="142" y="7" width="2" height="1" fill="#327a42"/><rect x="144" y="7" width="3" height="1" fill="#68ba6e"/><rect x="154" y="7" width="2" height="1" fill="#8b5cf6"/><rect x="156" y="7" width="1" height="1" fill="#68ba6e"/><rect x="157" y="7" width="2" height="1" fill="#327a42"/><rect x="144" y="8" width="3" height="1" fill="#327a42"/><rect x="147" y="8" width="3" height="1" fill="#68ba6e"/><rect x="150" y="8" width="4" height="1" fill="#8b5cf6"/><rect x="154" y="8" width="3" height="1" fill="#327a42"/><rect x="147" y="9" width="7" height="1" fill="#327a42"/></g>
<g class="sp"><rect x="112" y="30" width="1" height="1" fill="#ffffff"/><rect x="113" y="30" width="1" height="1" fill="#ced8e8"/><rect x="116" y="31" width="1" height="1" fill="#a9edbf"/><rect x="145" y="31" width="1" height="1" fill="#a9edbf"/><rect x="119" y="32" width="1" height="1" fill="#ced8e8"/><rect x="135" y="32" width="1" height="1" fill="#a9edbf"/><rect x="125" y="33" width="1" height="1" fill="#a9edbf"/><rect x="151" y="33" width="1" height="1" fill="#ced8e8"/><rect x="129" y="34" width="1" height="1" fill="#ced8e8"/><rect x="141" y="34" width="1" height="1" fill="#ced8e8"/><rect x="155" y="34" width="1" height="1" fill="#a9edbf"/></g>
<g class="gg"><rect x="30" y="24" width="1" height="1" fill="#79d595"/><rect x="170" y="24" width="1" height="1" fill="#79d595"/><rect x="30" y="25" width="1" height="1" fill="#79d595"/></g>
<g class="beam" opacity="0.8"><rect x="155" y="16" width="9" height="1" fill="#79d595"/><rect x="140" y="16" width="9" height="1" fill="#327a42"/></g>
<g class="ship"><rect x="0" y="3" width="4" height="1" fill="#96a0b4"/><rect x="4" y="3" width="2" height="1" fill="#79d595"/></g>
<g class="pulse"><rect x="0" y="24" width="1" height="2" fill="#46a86a"/><rect x="1" y="24" width="2" height="2" fill="#a9edbf"/><rect x="3" y="24" width="1" height="2" fill="#79d595"/></g>
<g class="lids"><rect x="92" y="23" width="2" height="1" fill="#6fc98a"/><rect x="97" y="23" width="2" height="1" fill="#6fc98a"/><rect x="92" y="24" width="2" height="1" fill="#12232a"/><rect x="97" y="24" width="2" height="1" fill="#12232a"/></g>
<g class="bub">
<rect x="67" y="0" width="56" height="1" fill="#130f2b"/>
<rect x="67" y="14" width="56" height="1" fill="#130f2b"/>
<rect x="66" y="1" width="1" height="13" fill="#130f2b"/>
<rect x="123" y="1" width="1" height="13" fill="#130f2b"/>
<rect x="67" y="1" width="56" height="13" fill="#ffffff"/>
<rect x="91" y="15" width="1" height="1" fill="#130f2b"/>
<rect x="95" y="15" width="1" height="1" fill="#130f2b"/>
<rect x="92" y="15" width="3" height="1" fill="#ffffff"/>
<rect x="92" y="16" width="1" height="1" fill="#130f2b"/>
<rect x="95" y="16" width="1" height="1" fill="#130f2b"/>
<rect x="93" y="16" width="2" height="1" fill="#ffffff"/>
<rect x="93" y="17" width="2" height="1" fill="#130f2b"/>
<text x="95" y="6.6" text-anchor="middle" font-family="monospace" font-size="4.6" font-weight="bold" fill="#0d1426">like what I guard?</text>
<text x="95" y="12" text-anchor="middle" font-family="monospace" font-size="4.6" font-weight="bold" fill="#0d1426">message my creator</text>
</g>
</svg>